<svg width="179" height="47" viewBox="0 0 179 47" fill="none" xmlns="http://www.w3.org/2000/svg">
<path d="M15.12 36.576C13.08 36.576 11.196 36.264 9.46797 35.64C7.76397 34.992 6.27597 34.08 5.00397 32.904C3.75597 31.728 2.78397 30.336 2.08797 28.728C1.39197 27.12 1.04397 25.344 1.04397 23.4C1.04397 21.456 1.39197 19.68 2.08797 18.072C2.78397 16.464 3.76797 15.072 5.03997 13.896C6.31197 12.72 7.81197 11.82 9.53997 11.196C11.292 10.548 13.212 10.224 15.3 10.224C17.796 10.224 20.016 10.644 21.96 11.484C23.928 12.324 25.548 13.524 26.82 15.084L21.384 19.872C20.592 18.96 19.728 18.276 18.792 17.82C17.88 17.34 16.86 17.1 15.732 17.1C14.796 17.1 13.944 17.244 13.176 17.532C12.432 17.82 11.796 18.24 11.268 18.792C10.74 19.344 10.332 20.004 10.044 20.772C9.75597 21.54 9.61197 22.416 9.61197 23.4C9.61197 24.336 9.75597 25.2 10.044 25.992C10.332 26.76 10.74 27.42 11.268 27.972C11.796 28.524 12.42 28.956 13.14 29.268C13.884 29.556 14.712 29.7 15.624 29.7C16.584 29.7 17.52 29.544 18.432 29.232C19.344 28.896 20.316 28.332 21.348 27.54L26.1 33.372C24.564 34.404 22.812 35.196 20.844 35.748C18.876 36.3 16.968 36.576 15.12 36.576ZM18.72 32.292V22.716H26.1V33.372L18.72 32.292ZM42.3199 36.36C39.9199 36.36 37.8199 35.916 36.0199 35.028C34.2439 34.14 32.8639 32.928 31.8799 31.392C30.8959 29.832 30.4039 28.08 30.4039 26.136C30.4039 24.144 30.8839 22.38 31.8439 20.844C32.8279 19.308 34.1599 18.108 35.8399 17.244C37.5439 16.38 39.4519 15.948 41.5639 15.948C43.5079 15.948 45.2959 16.332 46.9279 17.1C48.5839 17.868 49.9039 19.008 50.8879 20.52C51.8959 22.032 52.3999 23.904 52.3999 26.136C52.3999 26.424 52.3879 26.748 52.3639 27.108C52.3399 27.444 52.3159 27.756 52.2919 28.044H37.1359V24.12H47.9719L44.9119 25.164C44.9119 24.396 44.7679 23.748 44.4799 23.22C44.2159 22.668 43.8439 22.248 43.3639 21.96C42.8839 21.648 42.3079 21.492 41.6359 21.492C40.9639 21.492 40.3759 21.648 39.8719 21.96C39.3919 22.248 39.0199 22.668 38.7559 23.22C38.4919 23.748 38.3599 24.396 38.3599 25.164V26.388C38.3599 27.228 38.5279 27.948 38.8639 28.548C39.1999 29.148 39.6799 29.604 40.3039 29.916C40.9279 30.204 41.6839 30.348 42.5719 30.348C43.4839 30.348 44.2279 30.228 44.8039 29.988C45.4039 29.748 46.0279 29.388 46.6759 28.908L50.9239 33.192C49.9639 34.224 48.7759 35.016 47.3599 35.568C45.9679 36.096 44.2879 36.36 42.3199 36.36ZM67.8195 36.36C65.4195 36.36 63.3195 35.916 61.5195 35.028C59.7435 34.14 58.3635 32.928 57.3795 31.392C56.3955 29.832 55.9035 28.08 55.9035 26.136C55.9035 24.144 56.3835 22.38 57.3435 20.844C58.3275 19.308 59.6595 18.108 61.3395 17.244C63.0435 16.38 64.9515 15.948 67.0635 15.948C69.0075 15.948 70.7955 16.332 72.4275 17.1C74.0835 17.868 75.4035 19.008 76.3875 20.52C77.3955 22.032 77.8995 23.904 77.8995 26.136C77.8995 26.424 77.8875 26.748 77.8635 27.108C77.8395 27.444 77.8155 27.756 77.7915 28.044H62.6355V24.12H73.4715L70.4115 25.164C70.4115 24.396 70.2675 23.748 69.9795 23.22C69.7155 22.668 69.3435 22.248 68.8635 21.96C68.3835 21.648 67.8075 21.492 67.1355 21.492C66.4635 21.492 65.8755 21.648 65.3715 21.96C64.8915 22.248 64.5195 22.668 64.2555 23.22C63.9915 23.748 63.8595 24.396 63.8595 25.164V26.388C63.8595 27.228 64.0275 27.948 64.3635 28.548C64.6995 29.148 65.1795 29.604 65.8035 29.916C66.4275 30.204 67.1835 30.348 68.0715 30.348C68.9835 30.348 69.7275 30.228 70.3035 29.988C70.9035 29.748 71.5275 29.388 72.1755 28.908L76.4235 33.192C75.4635 34.224 74.2755 35.016 72.8595 35.568C71.4675 36.096 69.7875 36.36 67.8195 36.36ZM173.332 36.32C172.138 36.32 171.135 35.936 170.324 35.168C169.514 34.3786 169.108 33.376 169.108 32.16C169.108 30.9226 169.514 29.9306 170.324 29.184C171.135 28.4373 172.138 28.064 173.332 28.064C174.527 28.064 175.53 28.4373 176.34 29.184C177.151 29.9306 177.556 30.9226 177.556 32.16C177.556 33.376 177.151 34.3786 176.34 35.168C175.53 35.936 174.527 36.32 173.332 36.32Z" fill="#4A83F6"/>
<path d="M88.295 33.12L88.455 24.608L94.503 18.496H103.047L95.047 26.88L91.431 29.792L88.295 33.12ZM82.247 36V12.256H89.479V36H82.247ZM94.887 36L90.087 29.92L94.535 24.448L103.623 36H94.887ZM115.286 36.32C113.302 36.32 111.542 35.936 110.006 35.168C108.492 34.3786 107.297 33.3013 106.422 31.936C105.548 30.5706 105.11 29.0026 105.11 27.232C105.11 25.4613 105.548 23.8933 106.422 22.528C107.297 21.1626 108.492 20.096 110.006 19.328C111.542 18.56 113.302 18.176 115.286 18.176C117.27 18.176 119.03 18.56 120.566 19.328C122.102 20.096 123.297 21.1626 124.15 22.528C125.025 23.8933 125.462 25.4613 125.462 27.232C125.462 29.0026 125.025 30.5706 124.15 31.936C123.297 33.3013 122.102 34.3786 120.566 35.168C119.03 35.936 117.27 36.32 115.286 36.32ZM115.286 30.688C115.82 30.688 116.3 30.56 116.726 30.304C117.153 30.048 117.494 29.664 117.75 29.152C118.006 28.6186 118.134 27.9786 118.134 27.232C118.134 26.464 118.006 25.8346 117.75 25.344C117.494 24.832 117.153 24.448 116.726 24.192C116.3 23.936 115.82 23.808 115.286 23.808C114.753 23.808 114.273 23.936 113.846 24.192C113.42 24.448 113.078 24.832 112.822 25.344C112.566 25.8346 112.438 26.464 112.438 27.232C112.438 27.9786 112.566 28.6186 112.822 29.152C113.078 29.664 113.42 30.048 113.846 30.304C114.273 30.56 114.753 30.688 115.286 30.688ZM136.782 36.32C135.395 36.32 134.136 36.0426 133.006 35.488C131.896 34.912 131.022 34.0266 130.382 32.832C129.742 31.616 129.422 30.0586 129.422 28.16V18.496H136.654V26.912C136.654 28.1493 136.856 29.0133 137.262 29.504C137.667 29.9946 138.222 30.24 138.926 30.24C139.352 30.24 139.747 30.1333 140.11 29.92C140.494 29.6853 140.803 29.312 141.038 28.8C141.272 28.2666 141.39 27.5733 141.39 26.72V18.496H148.622V36H141.742V30.944L143.118 32.32C142.499 33.6853 141.614 34.6986 140.462 35.36C139.331 36 138.104 36.32 136.782 36.32ZM162.038 36.32C159.627 36.32 157.75 35.744 156.406 34.592C155.062 33.4186 154.39 31.6266 154.39 29.216V14.56H161.622V29.152C161.622 29.6853 161.76 30.1013 162.038 30.4C162.336 30.6986 162.699 30.848 163.126 30.848C163.744 30.848 164.288 30.688 164.758 30.368L166.486 35.392C165.931 35.712 165.259 35.9466 164.47 36.096C163.702 36.2453 162.891 36.32 162.038 36.32ZM151.99 24.736V19.456H165.206V24.736H151.99Z" fill="white"/>
</svg>
